# xmcd
#
# Track frame offsets:
#	150
#	13952
#	24987
#	48181
#	56615
#	68813
#	84614
#	95416
#	114561
#	127750
#	137296
#	151162
#	164779
#	177987
#	187023
#	202572
#
# Disc length: 2873 seconds
#
# Revision: 0
# Processed by: cddbd v1.5.2PL0 Copyright (c) Steve Scherf et al.
# Submitted via: audiograbber 1.83.01
#
DISCID=ca0b3710
DTITLE=Dubliners - Seven Drunken Nights [CD 3) - Wild Rover
DYEAR=1999
DGENRE=Folk
TTITLE0=School Days Over
TTITLE1=All For Me Grog [live]
TTITLE2=The Rare Old Times
TTITLE3=Johnson Motor Car
TTITLE4=Weila, Weila, Weile
TTITLE5=Seven Drunken Nights [live]
TTITLE6=Farewell To Ireland
TTITLE7=Killieburn Brai
TTITLE8=The Mero
TTITLE9=Cuanla [mono]
TTITLE10=Kimmage [live]
TTITLE11=Dirty Old Town [live]
TTITLE12=Skibereen
TTITLE13=James Larkin
TTITLE14=Prodigal Son
TTITLE15=Wild Rover [live]
EXTD=
EXTT0=
EXTT1=
EXTT2=
EXTT3=
EXTT4=
EXTT5=
EXTT6=
EXTT7=
EXTT8=
EXTT9=
EXTT10=
EXTT11=
EXTT12=
EXTT13=
EXTT14=
EXTT15=
PLAYORDER=
